<svg width="23" height="18" viewBox="0 0 23 18" fill="none" xmlns="http://www.w3.org/2000/svg">
<path fill-rule="evenodd" clip-rule="evenodd" d="M20 3.75H18.5V3C18.5 1.75736 17.4926 0.75 16.25 0.75H2.75C1.50736 0.75 0.5 1.75736 0.5 3V12C0.5 13.2426 1.50736 14.25 2.75 14.25H13.25V15C13.25 16.2426 14.2574 17.25 15.5 17.25H20C21.2426 17.25 22.25 16.2426 22.25 15V6C22.25 4.75736 21.2426 3.75 20 3.75ZM2.75 12.75C2.33579 12.75 2 12.4142 2 12V3C2 2.58579 2.33579 2.25 2.75 2.25H16.25C16.6642 2.25 17 2.58579 17 3V3.75H15.5C14.2574 3.75 13.25 4.75736 13.25 6V12.75H2.75ZM20.75 15C20.75 15.4142 20.4142 15.75 20 15.75H15.5C15.0858 15.75 14.75 15.4142 14.75 15V6C14.75 5.58579 15.0858 5.25 15.5 5.25H20C20.4142 5.25 20.75 5.58579 20.75 6V15ZM11.75 16.5C11.75 16.9142 11.4142 17.25 11 17.25H7.25C6.83579 17.25 6.5 16.9142 6.5 16.5C6.5 16.0858 6.83579 15.75 7.25 15.75H11C11.4142 15.75 11.75 16.0858 11.75 16.5ZM19.25 7.5C19.25 7.91421 18.9142 8.25 18.5 8.25H17C16.5858 8.25 16.25 7.91421 16.25 7.5C16.25 7.08579 16.5858 6.75 17 6.75H18.5C18.9142 6.75 19.25 7.08579 19.25 7.5Z" fill="#1C170D"/>
</svg>
