<svg width="22" height="17" viewBox="0 0 22 17" fill="none" xmlns="http://www.w3.org/2000/svg">
<path fill-rule="evenodd" clip-rule="evenodd" d="M20 3H15.5V2.25C15.5 1.00736 14.4926 0 13.25 0H8.75C7.50736 0 6.5 1.00736 6.5 2.25V3H2C1.17157 3 0.5 3.67157 0.5 4.5V15C0.5 15.8284 1.17157 16.5 2 16.5H20C20.8284 16.5 21.5 15.8284 21.5 15V4.5C21.5 3.67157 20.8284 3 20 3ZM8 2.25C8 1.83579 8.33579 1.5 8.75 1.5H13.25C13.6642 1.5 14 1.83579 14 2.25V3H8V2.25ZM20 4.5V7.5H17V6.75C17 6.33579 16.6642 6 16.25 6C15.8358 6 15.5 6.33579 15.5 6.75V7.5H6.5V6.75C6.5 6.33579 6.16421 6 5.75 6C5.33579 6 5 6.33579 5 6.75V7.5H2V4.5H20ZM20 15H2V9H5V9.75C5 10.1642 5.33579 10.5 5.75 10.5C6.16421 10.5 6.5 10.1642 6.5 9.75V9H15.5V9.75C15.5 10.1642 15.8358 10.5 16.25 10.5C16.6642 10.5 17 10.1642 17 9.75V9H20V15Z" fill="#1C170D"/>
</svg>
